<?xml version="1.0" encoding="utf-8"?>
<!-- Generator: Adobe Illustrator 17.0.0, SVG Export Plug-In . SVG Version: 6.00 Build 0)  -->
<!DOCTYPE svg PUBLIC "-//W3C//DTD SVG 1.1//EN" "http://www.w3.org/Graphics/SVG/1.1/DTD/svg11.dtd" [
	<!ENTITY ns_flows "http://ns.adobe.com/Flows/1.0/">
	<!ENTITY ns_extend "http://ns.adobe.com/Extensibility/1.0/">
	<!ENTITY ns_ai "http://ns.adobe.com/AdobeIllustrator/10.0/">
	<!ENTITY ns_graphs "http://ns.adobe.com/Graphs/1.0/">
]>
<svg version="1.1" id="Layer_1" xmlns:x="&ns_extend;" xmlns:i="&ns_ai;" xmlns:graph="&ns_graphs;"
	 xmlns="http://www.w3.org/2000/svg" xmlns:xlink="http://www.w3.org/1999/xlink" xmlns:a="http://ns.adobe.com/AdobeSVGViewerExtensions/3.0/"
	 x="0px" y="0px" width="1400px" height="980px" viewBox="0 0 1400 980" enable-background="new 0 0 1400 980" xml:space="preserve"
	>
<pattern  width="683.103" height="1183.817" patternUnits="userSpaceOnUse" id="New_Pattern" viewBox="28.825 -1339.041 683.103 1183.817" overflow="visible">
	<g>
		<polygon fill="none" points="28.825,-1339.041 711.928,-1339.041 711.928,-155.224 28.825,-155.224 		"/>
		<g>
			
				<polygon fill="none" stroke="#35303A" stroke-width="4" stroke-linecap="round" stroke-linejoin="round" stroke-miterlimit="10" points="
				694.413,-163.842 689.227,-158.657 679.799,-168.085 684.985,-173.27 			"/>
			<path fill="#FFC83A" stroke="#35303A" stroke-width="4" stroke-miterlimit="10" d="M649.827-316.272
				c0,5.575-4.519,10.094-10.094,10.094H523.647c-5.575,0-10.094-4.519-10.094-10.094v-59.906c0,0,60.062-53.333,65.637-53.333
				c7.542,0,70.637,55.333,70.637,55.333V-316.272z"/>
			<path fill="#E6DCDD" stroke="#35303A" stroke-width="4" stroke-miterlimit="10" d="M635.817-341.196
				c0,4.429-3.59,8.019-8.019,8.019h-92.217c-4.429,0-8.019-3.59-8.019-8.019v-68.962c0-4.429,3.59-8.019,8.019-8.019h92.217
				c4.429,0,8.019,3.59,8.019,8.019V-341.196z"/>
			<path fill="#FFC83A" d="M647.856-322.177c0,5.523-4.477,10-10,10H527.19c-5.523,0-10-4.477-10-10v-36.667c0-5.523,4.477-10,10-10
				l33.033,19.333l18.967-12.667l22,12.667l36.667-19.333c5.523,0,10,4.477,10,10V-322.177z"/>
			<path fill="none" stroke="#35303A" stroke-width="4" stroke-miterlimit="10" d="M514.19-316.177c0,0,59.477-46,65-46
				c5,0,70,46,70,46"/>
			
				<line fill="none" stroke="#35303A" stroke-width="4" stroke-miterlimit="10" x1="601.19" y1="-349.511" x2="649.856" y2="-376.177"/>
			
				<line fill="none" stroke="#35303A" stroke-width="4" stroke-miterlimit="10" x1="560.223" y1="-349.511" x2="512.89" y2="-376.177"/>
			
				<path fill="#AAD8BF" stroke="#35303A" stroke-width="4" stroke-linecap="round" stroke-linejoin="round" stroke-miterlimit="10" d="
				M682.392-226.539c15.426,15.426,15.426,40.436,0,55.861s-40.436,15.426-55.861,0c-15.426-15.426-15.426-40.436,0-55.861
				C641.956-241.965,666.966-241.965,682.392-226.539z"/>
			
				<path fill="#E6DCDD" stroke="#35303A" stroke-width="4" stroke-linecap="round" stroke-linejoin="round" stroke-miterlimit="10" d="
				M674.76-218.907c11.211,11.211,11.211,29.386,0,40.597s-29.386,11.211-40.597,0c-11.211-11.211-11.211-29.386,0-40.597
				C645.373-230.117,663.549-230.117,674.76-218.907z"/>
			<path fill="none" stroke="#35303A" stroke-width="4" stroke-linecap="round" stroke-linejoin="round" stroke-miterlimit="10" d="
				M633.007-201.952c0.739-4.16,2.715-8.143,5.929-11.357"/>
			
				<line fill="none" stroke="#35303A" stroke-width="4" stroke-linecap="round" stroke-linejoin="round" stroke-miterlimit="10" x1="535.856" y1="-410.177" x2="548.19" y2="-410.177"/>
			
				<line fill="none" stroke="#35303A" stroke-width="4" stroke-linecap="round" stroke-linejoin="round" stroke-miterlimit="10" x1="558.19" y1="-410.177" x2="562.79" y2="-410.177"/>
			<path fill="#35303A" d="M633.755-190.958c3.224,0,3.224-5,0-5S630.531-190.958,633.755-190.958L633.755-190.958z"/>
			<path fill="#FFC83A" stroke="#35303A" stroke-width="4" stroke-miterlimit="10" d="M731.017-132.895
				c2.994,2.994,2.994,7.848,0,10.842l0,0c-2.994,2.994-7.848,2.994-10.842,0l-28.284-28.284c-2.994-2.994-2.994-7.848,0-10.842l0,0
				c2.994-2.994,7.848-2.994,10.842,0L731.017-132.895z"/>
			
				<line fill="none" stroke="#35303A" stroke-width="4" stroke-linecap="round" stroke-linejoin="round" stroke-miterlimit="10" x1="522.99" y1="-314.611" x2="531.656" y2="-320.811"/>
			<path fill="#AAD8BF" stroke="#35303A" stroke-width="4" stroke-miterlimit="10" d="M424.414-259.853
				c0,13.818-25.019,33.981-25.019,33.981s-25.019-20.163-25.019-33.981c0-13.818,11.201-25.019,25.019-25.019
				C413.213-284.872,424.414-273.671,424.414-259.853z"/>
			
				<path fill="#E6DCDD" stroke="#35303A" stroke-width="4" stroke-linecap="round" stroke-linejoin="round" stroke-miterlimit="10" d="
				M405.22-254.723c-3.217,3.217-8.432,3.217-11.648,0c-3.217-3.217-3.217-8.432,0-11.648c3.217-3.217,8.432-3.217,11.648,0
				C408.436-263.155,408.436-257.94,405.22-254.723z"/>
			
				<path fill="#AAD8BF" stroke="#35303A" stroke-width="4" stroke-linecap="round" stroke-linejoin="round" stroke-miterlimit="10" d="
				M445.755-387.828c-2.506,2.506-6.569,2.506-9.074,0c-2.506-2.506-2.506-6.569,0-9.074c2.506-2.506,6.569-2.506,9.074,0
				S448.261-390.334,445.755-387.828z"/>
		</g>
		<g>
			<path fill="#FFC83A" stroke="#35303A" stroke-width="4" stroke-miterlimit="10" d="M366.376-15.093
				c0,3.776-2.786,6.837-6.223,6.837h-90.887c-3.437,0-6.223-3.061-6.223-6.837v-135.241c0-3.776,2.786-6.837,6.223-6.837h90.887
				c3.437,0,6.223,3.061,6.223,6.837V-15.093z"/>
			<path fill="#FFC83A" stroke="#35303A" stroke-width="4" stroke-miterlimit="10" d="M215.382-231.659
				c0-20.433-16.565-36.998-36.998-36.998s-36.998,16.565-36.998,36.998c0,13.592,7.335,25.466,18.257,31.897
				c-0.014,0.227-0.035,0.453-0.035,0.683v11.044c0,6.1,4.945,11.044,11.044,11.044h15.462c6.1,0,11.044-4.945,11.044-11.044
				v-11.044c0-0.231-0.02-0.456-0.035-0.683C208.048-206.193,215.382-218.067,215.382-231.659z"/>
			
				<path fill="#AAD8BF" stroke="#35303A" stroke-width="4" stroke-linecap="round" stroke-linejoin="round" stroke-miterlimit="10" d="
				M193.051-170.657c0,8.1-6.566,14.667-14.667,14.667s-14.667-6.566-14.667-14.667s6.566-14.667,14.667-14.667
				S193.051-178.757,193.051-170.657z"/>
			
				<line fill="none" stroke="#35303A" stroke-width="4" stroke-linecap="round" stroke-linejoin="round" stroke-miterlimit="10" x1="104.403" y1="-437.178" x2="109.003" y2="-437.178"/>
			
				<line fill="none" stroke="#35303A" stroke-width="4" stroke-linecap="round" stroke-linejoin="round" stroke-miterlimit="10" x1="142.186" y1="-418.178" x2="142.186" y2="-422.778"/>
			
				<line fill="none" stroke="#35303A" stroke-width="4" stroke-linecap="round" stroke-linejoin="round" stroke-miterlimit="10" x1="71.686" y1="-418.178" x2="71.686" y2="-422.778"/>
			<path fill="#35303A" d="M172.197-257.49c3.224,0,3.224-5,0-5C168.973-262.49,168.973-257.49,172.197-257.49L172.197-257.49z"/>
			<path fill="#FFC83A" stroke="#35303A" stroke-width="4" stroke-miterlimit="10" d="M47.915-132.895
				c2.994,2.994,2.994,7.848,0,10.842l0,0c-2.994,2.994-7.848,2.994-10.842,0L8.788-150.337c-2.994-2.994-2.994-7.848,0-10.842l0,0
				c2.994-2.994,7.848-2.994,10.842,0L47.915-132.895z"/>
			<path fill="none" stroke="#35303A" stroke-width="4" stroke-linecap="round" stroke-linejoin="round" stroke-miterlimit="10" d="
				M139.703-343.178c0,5.523-4.477,10-10,10h-46c-5.523,0-10-4.477-10-10v-93c0-5.523,4.477-10,10-10h46c5.523,0,10,4.477,10,10
				V-343.178z"/>
			
				<polygon fill="#D5302F" stroke="#35303A" stroke-width="4" stroke-linecap="round" stroke-linejoin="round" stroke-miterlimit="10" points="
				132.203,-354.178 81.203,-354.178 81.203,-426.178 132.203,-426.178 			"/>
			<path fill="none" stroke="#35303A" stroke-width="4" stroke-linecap="round" stroke-linejoin="round" stroke-miterlimit="10" d="
				M111.369-343.845c0,2.577-2.089,4.667-4.667,4.667s-4.667-2.089-4.667-4.667s2.089-4.667,4.667-4.667
				S111.369-346.422,111.369-343.845z"/>
			
				<path fill="#AAD8BF" stroke="#35303A" stroke-width="4" stroke-linecap="round" stroke-linejoin="round" stroke-miterlimit="10" d="
				M201.051-187.814c0,3.209-1.791,5.81-4,5.81h-37.333c-2.209,0-4-2.601-4-5.81l0,0c0-3.209,1.791-5.81,4-5.81h37.333
				C199.26-193.624,201.051-191.023,201.051-187.814L201.051-187.814z"/>
			
				<path fill="#AAD8BF" stroke="#35303A" stroke-width="4" stroke-linecap="round" stroke-linejoin="round" stroke-miterlimit="10" d="
				M201.051-176c0,3.209-1.791,5.81-4,5.81h-37.333c-2.209,0-4-2.601-4-5.81l0,0c0-3.209,1.791-5.81,4-5.81h37.333
				C199.26-181.81,201.051-179.209,201.051-176L201.051-176z"/>
			<path fill="none" stroke="#35303A" stroke-width="4" stroke-linecap="round" stroke-linejoin="round" stroke-miterlimit="10" d="
				M178.197-194.657v-21.333"/>
			
				<polyline fill="none" stroke="#35303A" stroke-width="4" stroke-linecap="round" stroke-linejoin="round" stroke-miterlimit="10" points="
				163.53,-232.39 178.197,-218.557 192.197,-232.824 			"/>
			<path fill="none" stroke="#35303A" stroke-width="4" stroke-linecap="round" stroke-linejoin="round" stroke-miterlimit="10" d="
				M154.925-248.266c2.346-3.514,5.754-6.369,9.988-8.023"/>
			<path fill="#E6DCDD" stroke="#35303A" stroke-width="4" stroke-miterlimit="10" d="M298.494-362.888l-31.515,31.515
				c-3.624,3.624-9.727,3.396-13.633-0.51l-19.092-19.092c-3.905-3.905-4.133-10.009-0.51-13.633l31.454-31.454
				c1.818-1.818,18.082-2.997,20.186-0.892l14.177,14.177C301.665-380.673,300.605-364.999,298.494-362.888z M288.736-380.484
				c0-3.247-2.632-5.88-5.88-5.88c-3.247,0-5.88,2.632-5.88,5.88c0,3.247,2.632,5.88,5.88,5.88
				C286.103-374.604,288.736-377.237,288.736-380.484z"/>
			<path fill="#35303A" d="M285.481-379.748c2.389-9.251,11.539-17.058,21.441-14.521c3.126,0.801,4.451-4.021,1.329-4.821
				c-12.514-3.207-24.511,6.083-27.592,18.013C279.852-377.952,284.675-376.628,285.481-379.748L285.481-379.748z"/>
			
				<line fill="none" stroke="#35303A" stroke-width="8" stroke-linecap="round" stroke-linejoin="round" stroke-miterlimit="10" x1="345.154" y1="-4" x2="345.154" y2="-161.179"/>
			<polygon fill="#E6DCDD" stroke="#35303A" stroke-width="4" stroke-miterlimit="10" points="319.28,-90.091 256.429,-94.421 
				260.896,-159.267 323.747,-154.937 			"/>
			<path fill="none" stroke="#35303A" stroke-width="4" stroke-linecap="round" stroke-linejoin="round" stroke-miterlimit="10" d="
				M290.296-130.914c0-5.417,0-11.695,0-14.412c0-3.93,6.66-4.367,6.66-0.436c0,6.987,0,17.687,0,17.687
				c0,3.618-2.933,6.551-6.551,6.551l0,0c-3.618,0-6.551-2.933-6.551-6.551v-27.514c0-3.618,2.933-6.551,6.551-6.551
				c3.712,0,6.769,3.1,6.769,5.241"/>
		</g>
		<g>
			<path fill="#FFC83A" stroke="#35303A" stroke-width="4" stroke-miterlimit="10" d="M707.928-607.001
				c0,3.776-2.786,6.837-6.223,6.837h-90.887c-3.437,0-6.223-3.061-6.223-6.837v-135.241c0-3.776,2.786-6.837,6.223-6.837h90.887
				c3.437,0,6.223,3.061,6.223,6.837V-607.001z"/>
			<path fill="#AAD8BF" stroke="#35303A" stroke-width="4" stroke-miterlimit="10" d="M227.517-676.252
				c-6.717,6.717-17.554,6.771-24.205,0.12c-6.651-6.651-6.597-17.488,0.12-24.205c6.717-6.717,17.554-6.771,24.205-0.12
				S234.234-682.969,227.517-676.252z"/>
			<path fill="#AAD8BF" stroke="#35303A" stroke-width="4" stroke-miterlimit="10" d="M169.125-672.067
				c-11.345,7.527-26.583,4.523-34.036-6.71c-7.453-11.233-4.297-26.44,7.048-33.967s26.583-4.523,34.036,6.71
				C183.625-694.802,180.469-679.594,169.125-672.067z"/>
			<path fill="#AAD8BF" stroke="#35303A" stroke-width="4" stroke-miterlimit="10" d="M210.73-655.494c0,19.33-15.67,35-35,35
				s-35-15.67-35-35s15.67-35,35-35S210.73-674.824,210.73-655.494z"/>
			
				<path fill="#AAD8BF" stroke="#35303A" stroke-width="4" stroke-linecap="round" stroke-linejoin="round" stroke-miterlimit="10" d="
				M502.044-466.126c0,5.494-4.454,9.947-9.947,9.947H353.498c-5.494,0-9.947-4.454-9.947-9.947v-155.177
				c0-5.494,4.454-9.947,9.947-9.947h138.598c5.494,0,9.947,4.454,9.947,9.947V-466.126z"/>
			<polygon fill="#E6DCDD" stroke="#35303A" stroke-width="4" stroke-miterlimit="10" points="491.765,-485.357 352.504,-485.357 
				352.504,-620.639 491.765,-620.639 			"/>
			<path fill="none" stroke="#35303A" stroke-width="4" stroke-miterlimit="10" d="M374.918-486.352
				c0,0,18.369-20.236,46.221-20.236c27.852,0,48.94,20.236,48.94,20.236"/>
			<path fill="#FFC83A" stroke="#35303A" stroke-width="4" stroke-miterlimit="10" d="M556.934-823.567
				c0-20.433-16.565-36.998-36.998-36.998c-20.433,0-36.998,16.565-36.998,36.998c0,13.593,7.335,25.466,18.257,31.897
				c-0.014,0.227-0.035,0.453-0.035,0.683v11.044c0,6.1,4.945,11.044,11.044,11.044h15.462c6.099,0,11.044-4.945,11.044-11.044
				v-11.044c0-0.231-0.021-0.456-0.035-0.683C549.599-798.102,556.934-809.975,556.934-823.567z"/>
			
				<path fill="#AAD8BF" stroke="#35303A" stroke-width="4" stroke-linecap="round" stroke-linejoin="round" stroke-miterlimit="10" d="
				M534.603-762.565c0,8.1-6.566,14.667-14.667,14.667c-8.1,0-14.667-6.566-14.667-14.667c0-8.1,6.566-14.667,14.667-14.667
				C528.036-777.232,534.603-770.666,534.603-762.565z"/>
			
				<polygon fill="none" stroke="#35303A" stroke-width="4" stroke-linecap="round" stroke-linejoin="round" stroke-miterlimit="10" points="
				352.862,-755.751 347.676,-750.565 338.248,-759.993 343.433,-765.179 			"/>
			<path fill="#FFC83A" stroke="#35303A" stroke-width="4" stroke-miterlimit="10" d="M308.275-908.18
				c0,5.575-4.519,10.094-10.094,10.094H182.096c-5.575,0-10.094-4.519-10.094-10.094v-59.906c0,0,60.062-53.333,65.637-53.333
				c7.542,0,70.637,55.333,70.637,55.333V-908.18z"/>
			<path fill="#E6DCDD" stroke="#35303A" stroke-width="4" stroke-miterlimit="10" d="M294.266-933.105
				c0,4.429-3.59,8.019-8.019,8.019H194.03c-4.429,0-8.019-3.59-8.019-8.019v-68.962c0-4.429,3.59-8.019,8.019-8.019h92.217
				c4.429,0,8.019,3.59,8.019,8.019V-933.105z"/>
			<path fill="#FFC83A" d="M306.305-914.086c0,5.523-4.477,10-10,10H185.638c-5.523,0-10-4.477-10-10v-36.667
				c0-5.523,4.477-10,10-10l33.033,19.333l18.967-12.667l22,12.667l36.667-19.333c5.523,0,10,4.477,10,10V-914.086z"/>
			<path fill="none" stroke="#35303A" stroke-width="4" stroke-miterlimit="10" d="M172.638-908.086c0,0,59.477-46,65-46
				c5,0,70,46,70,46"/>
			
				<line fill="none" stroke="#35303A" stroke-width="4" stroke-miterlimit="10" x1="259.638" y1="-941.419" x2="308.305" y2="-968.086"/>
			
				<line fill="none" stroke="#35303A" stroke-width="4" stroke-miterlimit="10" x1="218.672" y1="-941.419" x2="171.338" y2="-968.086"/>
			
				<path fill="#AAD8BF" stroke="#35303A" stroke-width="4" stroke-linecap="round" stroke-linejoin="round" stroke-miterlimit="10" d="
				M340.841-818.448c15.426,15.426,15.426,40.436,0,55.861c-15.426,15.426-40.436,15.426-55.861,0s-15.426-40.436,0-55.861
				S325.415-833.873,340.841-818.448z"/>
			
				<path fill="#E6DCDD" stroke="#35303A" stroke-width="4" stroke-linecap="round" stroke-linejoin="round" stroke-miterlimit="10" d="
				M333.208-810.815c11.211,11.211,11.211,29.386,0,40.597c-11.211,11.211-29.386,11.211-40.597,0
				c-11.211-11.211-11.211-29.386,0-40.597C303.822-822.026,321.998-822.026,333.208-810.815z"/>
			<path fill="none" stroke="#35303A" stroke-width="4" stroke-linecap="round" stroke-linejoin="round" stroke-miterlimit="10" d="
				M291.455-793.86c0.739-4.16,2.715-8.143,5.929-11.357"/>
			
				<line fill="none" stroke="#35303A" stroke-width="4" stroke-linecap="round" stroke-linejoin="round" stroke-miterlimit="10" x1="194.305" y1="-1002.086" x2="206.638" y2="-1002.086"/>
			
				<line fill="none" stroke="#35303A" stroke-width="4" stroke-linecap="round" stroke-linejoin="round" stroke-miterlimit="10" x1="216.638" y1="-1002.086" x2="221.238" y2="-1002.086"/>
			
				<line fill="none" stroke="#35303A" stroke-width="4" stroke-linecap="round" stroke-linejoin="round" stroke-miterlimit="10" x1="445.954" y1="-1029.087" x2="450.554" y2="-1029.087"/>
			
				<line fill="none" stroke="#35303A" stroke-width="4" stroke-linecap="round" stroke-linejoin="round" stroke-miterlimit="10" x1="483.737" y1="-1010.087" x2="483.737" y2="-1014.687"/>
			
				<line fill="none" stroke="#35303A" stroke-width="4" stroke-linecap="round" stroke-linejoin="round" stroke-miterlimit="10" x1="413.237" y1="-1010.087" x2="413.237" y2="-1014.687"/>
			<path fill="#35303A" d="M292.204-782.867c3.224,0,3.224-5,0-5S288.979-782.867,292.204-782.867L292.204-782.867z"/>
			<path fill="#35303A" d="M513.748-849.399c3.224,0,3.224-5,0-5C510.524-854.399,510.524-849.399,513.748-849.399L513.748-849.399z
				"/>
			<path fill="#FFC83A" stroke="#35303A" stroke-width="4" stroke-miterlimit="10" d="M389.466-724.803
				c2.994,2.994,2.994,7.848,0,10.842l0,0c-2.994,2.994-7.848,2.994-10.842,0l-28.284-28.284c-2.994-2.994-2.994-7.848,0-10.842l0,0
				c2.994-2.994,7.848-2.994,10.842,0L389.466-724.803z"/>
			
				<line fill="none" stroke="#35303A" stroke-width="4" stroke-linecap="round" stroke-linejoin="round" stroke-miterlimit="10" x1="382.501" y1="-719.394" x2="388.688" y2="-725.581"/>
			
				<line fill="none" stroke="#35303A" stroke-width="4" stroke-linecap="round" stroke-linejoin="round" stroke-miterlimit="10" x1="181.438" y1="-906.519" x2="190.105" y2="-912.719"/>
			<path fill="none" stroke="#35303A" stroke-width="4" stroke-linecap="round" stroke-linejoin="round" stroke-miterlimit="10" d="
				M481.254-935.087c0,5.523-4.477,10-10,10h-46c-5.523,0-10-4.477-10-10v-93c0-5.523,4.477-10,10-10h46c5.523,0,10,4.477,10,10
				V-935.087z"/>
			
				<polygon fill="#D5302F" stroke="#35303A" stroke-width="4" stroke-linecap="round" stroke-linejoin="round" stroke-miterlimit="10" points="
				473.754,-946.087 422.754,-946.087 422.754,-1018.087 473.754,-1018.087 			"/>
			<path fill="none" stroke="#35303A" stroke-width="4" stroke-linecap="round" stroke-linejoin="round" stroke-miterlimit="10" d="
				M452.921-935.753c0,2.577-2.089,4.667-4.667,4.667s-4.667-2.089-4.667-4.667s2.089-4.667,4.667-4.667
				S452.921-938.331,452.921-935.753z"/>
			
				<path fill="#AAD8BF" stroke="#35303A" stroke-width="4" stroke-linecap="round" stroke-linejoin="round" stroke-miterlimit="10" d="
				M542.603-779.722c0,3.209-1.791,5.81-4,5.81h-37.333c-2.209,0-4-2.601-4-5.81l0,0c0-3.209,1.791-5.81,4-5.81h37.333
				C540.812-785.532,542.603-782.931,542.603-779.722L542.603-779.722z"/>
			
				<path fill="#AAD8BF" stroke="#35303A" stroke-width="4" stroke-linecap="round" stroke-linejoin="round" stroke-miterlimit="10" d="
				M542.603-767.909c0,3.209-1.791,5.81-4,5.81h-37.333c-2.209,0-4-2.601-4-5.81l0,0c0-3.209,1.791-5.81,4-5.81h37.333
				C540.812-773.718,542.603-771.117,542.603-767.909L542.603-767.909z"/>
			<path fill="none" stroke="#35303A" stroke-width="4" stroke-linecap="round" stroke-linejoin="round" stroke-miterlimit="10" d="
				M519.748-786.565v-21.333"/>
			
				<polyline fill="none" stroke="#35303A" stroke-width="4" stroke-linecap="round" stroke-linejoin="round" stroke-miterlimit="10" points="
				505.082,-824.299 519.748,-810.465 533.748,-824.732 			"/>
			<path fill="none" stroke="#35303A" stroke-width="4" stroke-linecap="round" stroke-linejoin="round" stroke-miterlimit="10" d="
				M496.476-840.174c2.346-3.514,5.754-6.369,9.988-8.023"/>
			
				<path fill="#D5302F" stroke="#35303A" stroke-width="4" stroke-linecap="round" stroke-linejoin="round" stroke-miterlimit="10" d="
				M421.059-609.697c20.744,0,43.793,13.819,43.793,44.835s0,54.048,0,54.048h-83.634c0,0,0-35.008,0-54.048
				C381.217-594.65,401.961-609.697,421.059-609.697z"/>
			<path fill="#FFC83A" stroke="#35303A" stroke-width="4" stroke-miterlimit="10" d="M450.542-556.551
				c0,0-5.281-6.402-22.018-8.552c-15.817-2.032-26.184-14.451-26.184-14.451s-2.604,16.855-9.819,23.003c0,0-1,14.156,3.501,24.773
				c2.769,6.532,6.917,12.448,12.482,16.257v13.413c0,0,3.069,6.605,13.573,6.605c9.23,0,12.527-6.605,12.527-6.605v-12.797
				c5.559-3.72,9.975-9.855,12.595-16.872C452.201-545.173,450.542-556.551,450.542-556.551z"/>
			<path fill="none" stroke="#35303A" stroke-width="2" stroke-linecap="round" stroke-linejoin="round" stroke-miterlimit="10" d="
				M422.752-540.296c3.812,0,4.433-1.99,2.799-4.101c-1.118-1.444-2.963-2.842-2.963-4.716"/>
			<path fill="#35303A" d="M423.049-529.927c2.566,0,4.619,0.837,5.303,0.837s-2.224,2.303-5.303,2.303
				c-3.079,0-6.501-2.303-5.303-2.303C418.943-529.089,420.768-529.927,423.049-529.927z"/>
			<path fill="none" stroke="#35303A" stroke-width="3" stroke-linecap="round" stroke-linejoin="round" stroke-miterlimit="10" d="
				M403.639-552.994c1.186-1.192,4.018-0.883,5.247,0.074"/>
			<path fill="none" stroke="#35303A" stroke-width="3" stroke-linecap="round" stroke-linejoin="round" stroke-miterlimit="10" d="
				M441.458-552.6c-1.891-1.148-2.568-1.148-4.601-0.319"/>
			<path fill="#E6DCDD" stroke="#35303A" stroke-width="4" stroke-miterlimit="10" d="M219.73-591.828
				c0,10.125-8.208,18.333-18.333,18.333h-51.333c-10.125,0-18.333-8.208-18.333-18.333v-33h88V-591.828z"/>
			<path fill="#E6DCDD" stroke="#35303A" stroke-width="4" stroke-miterlimit="10" d="M216.48-569.494c0-2.485-1.766-4.5-3.944-4.5
				h-73.613c-2.178,0-3.944,2.015-3.944,4.5l0,0c0,2.485,1.766,4.5,3.944,4.5h73.613C214.714-564.994,216.48-567.009,216.48-569.494
				L216.48-569.494z"/>
			<path fill="#AAD8BF" stroke="#35303A" stroke-width="4" stroke-miterlimit="10" d="M171.819-716.191
				c-3.804,2.524-8.914,1.517-11.413-2.25s-1.441-8.866,2.363-11.39c3.804-2.524,8.914-1.517,11.413,2.25
				C176.681-723.815,175.623-718.715,171.819-716.191z"/>
			<path fill="#35303A" d="M151.008-649.994c3.224,0,3.224-5,0-5C147.783-654.994,147.783-649.994,151.008-649.994L151.008-649.994z
				"/>
			<path fill="#35303A" d="M164.341-675.994c3.224,0,3.224-5,0-5C161.117-680.994,161.117-675.994,164.341-675.994L164.341-675.994z
				"/>
			<path fill="#35303A" d="M163.008-657.994c3.224,0,3.224-5,0-5C159.783-662.994,159.783-657.994,163.008-657.994L163.008-657.994z
				"/>
			<path fill="#35303A" d="M179.674-669.328c3.224,0,3.224-5,0-5C176.45-674.328,176.45-669.328,179.674-669.328L179.674-669.328z"
				/>
			<path fill="#35303A" d="M179.008-649.994c3.224,0,3.224-5,0-5C175.783-654.994,175.783-649.994,179.008-649.994L179.008-649.994z
				"/>
			<path fill="#35303A" d="M163.674-634.661c3.224,0,3.224-5,0-5C160.45-639.661,160.45-634.661,163.674-634.661L163.674-634.661z"
				/>
			<path fill="#35303A" d="M188.341-631.994c3.224,0,3.224-5,0-5C185.117-636.994,185.117-631.994,188.341-631.994L188.341-631.994z
				"/>
			<path fill="#35303A" d="M198.341-649.328c3.224,0,3.224-5,0-5C195.117-654.328,195.117-649.328,198.341-649.328L198.341-649.328z
				"/>
			<path fill="#35303A" d="M195.674-666.661c3.224,0,3.224-5,0-5C192.45-671.661,192.45-666.661,195.674-666.661L195.674-666.661z"
				/>
			<path fill="#35303A" d="M209.674-691.328c3.224,0,3.224-5,0-5C206.45-696.328,206.45-691.328,209.674-691.328L209.674-691.328z"
				/>
			<path fill="#35303A" d="M228.305-700.421c3.224,0,3.224-5,0-5C225.081-705.421,225.081-700.421,228.305-700.421L228.305-700.421z
				"/>
			<path fill="#35303A" d="M209.674-681.994c3.224,0,3.224-5,0-5C206.45-686.994,206.45-681.994,209.674-681.994L209.674-681.994z"
				/>
			<path fill="#35303A" d="M139.674-687.328c3.224,0,3.224-5,0-5C136.45-692.328,136.45-687.328,139.674-687.328L139.674-687.328z"
				/>
			<path fill="#35303A" d="M143.008-700.661c3.224,0,3.224-5,0-5C139.783-705.661,139.783-700.661,143.008-700.661L143.008-700.661z
				"/>
			<path fill="#35303A" d="M155.674-703.994c3.224,0,3.224-5,0-5C152.45-708.994,152.45-703.994,155.674-703.994L155.674-703.994z"
				/>
			<path fill="#AAD8BF" stroke="#35303A" stroke-width="4" stroke-miterlimit="10" d="M82.863-851.762
				c0,13.818-25.019,33.981-25.019,33.981s-25.019-20.163-25.019-33.981c0-13.818,11.201-25.019,25.019-25.019
				S82.863-865.579,82.863-851.762z"/>
			
				<path fill="#E6DCDD" stroke="#35303A" stroke-width="4" stroke-linecap="round" stroke-linejoin="round" stroke-miterlimit="10" d="
				M63.668-846.631c-3.217,3.217-8.432,3.217-11.648,0c-3.217-3.217-3.217-8.432,0-11.648c3.217-3.217,8.432-3.217,11.648,0
				C66.885-855.063,66.885-849.848,63.668-846.631z"/>
			
				<path fill="#D5302F" stroke="#35303A" stroke-width="4" stroke-linecap="round" stroke-linejoin="round" stroke-miterlimit="10" d="
				M644.177-529.759c-2.506,2.506-6.569,2.506-9.074,0c-2.506-2.506-2.506-6.569,0-9.074c2.506-2.506,6.569-2.506,9.074,0
				C646.682-536.327,646.682-532.265,644.177-529.759z"/>
			
				<path fill="#AAD8BF" stroke="#35303A" stroke-width="4" stroke-linecap="round" stroke-linejoin="round" stroke-miterlimit="10" d="
				M104.204-979.736c-2.506,2.506-6.569,2.506-9.074,0c-2.506-2.506-2.506-6.569,0-9.074c2.506-2.506,6.569-2.506,9.074,0
				C106.709-986.305,106.709-982.242,104.204-979.736z"/>
			<path fill="#E6DCDD" stroke="#35303A" stroke-width="4" stroke-miterlimit="10" d="M640.045-954.796l-31.515,31.515
				c-3.624,3.624-9.727,3.396-13.633-0.51l-19.092-19.092c-3.905-3.905-4.133-10.009-0.51-13.633l31.454-31.454
				c1.818-1.818,18.082-2.997,20.186-0.892l14.177,14.177C643.217-972.581,642.156-956.907,640.045-954.796z M630.287-972.392
				c0-3.247-2.632-5.88-5.88-5.88c-3.247,0-5.88,2.632-5.88,5.88s2.632,5.88,5.88,5.88
				C627.654-966.513,630.287-969.145,630.287-972.392z"/>
			<path fill="#35303A" d="M627.032-971.656c2.389-9.251,11.539-17.058,21.441-14.521c3.126,0.801,4.451-4.022,1.329-4.821
				c-12.514-3.207-24.511,6.083-27.592,18.013C621.404-969.861,626.226-968.536,627.032-971.656L627.032-971.656z"/>
			
				<line fill="none" stroke="#35303A" stroke-width="8" stroke-linecap="round" stroke-linejoin="round" stroke-miterlimit="10" x1="686.706" y1="-595.908" x2="686.706" y2="-753.087"/>
			<polygon fill="#E6DCDD" stroke="#35303A" stroke-width="4" stroke-miterlimit="10" points="660.831,-681.999 597.98,-686.329 
				602.448,-751.176 665.299,-746.846 			"/>
			<path fill="none" stroke="#35303A" stroke-width="4" stroke-linecap="round" stroke-linejoin="round" stroke-miterlimit="10" d="
				M631.847-722.823c0-5.417,0-11.695,0-14.412c0-3.931,6.66-4.367,6.66-0.436c0,6.987,0,17.687,0,17.687
				c0,3.618-2.933,6.551-6.551,6.551l0,0c-3.618,0-6.551-2.933-6.551-6.551v-27.513c0-3.618,2.933-6.551,6.551-6.551
				c3.712,0,6.769,3.1,6.769,5.241"/>
		</g>
		<g>
			<path fill="#AAD8BF" stroke="#35303A" stroke-width="4" stroke-miterlimit="10" d="M569.068-1268.16
				c-6.717,6.717-17.554,6.771-24.205,0.12c-6.651-6.651-6.597-17.488,0.12-24.205c6.717-6.717,17.554-6.771,24.205-0.12
				C575.839-1285.714,575.785-1274.877,569.068-1268.16z"/>
			<path fill="#AAD8BF" stroke="#35303A" stroke-width="4" stroke-miterlimit="10" d="M510.676-1263.975
				c-11.345,7.527-26.583,4.523-34.036-6.71c-7.453-11.233-4.297-26.44,7.048-33.967c11.345-7.527,26.583-4.523,34.036,6.71
				C525.176-1286.71,522.021-1271.502,510.676-1263.975z"/>
			<path fill="#AAD8BF" stroke="#35303A" stroke-width="4" stroke-miterlimit="10" d="M552.281-1247.403c0,19.33-15.67,35-35,35
				s-35-15.67-35-35s15.67-35,35-35S552.281-1266.733,552.281-1247.403z"/>
			
				<path fill="#AAD8BF" stroke="#35303A" stroke-width="4" stroke-linecap="round" stroke-linejoin="round" stroke-miterlimit="10" d="
				M843.595-1058.034c0,5.494-4.454,9.947-9.947,9.947H695.05c-5.494,0-9.947-4.454-9.947-9.947v-155.177
				c0-5.494,4.454-9.947,9.947-9.947h138.598c5.494,0,9.947,4.453,9.947,9.947V-1058.034z"/>
			<polygon fill="#E6DCDD" stroke="#35303A" stroke-width="4" stroke-miterlimit="10" points="833.316,-1077.265 694.055,-1077.265 
				694.055,-1212.548 833.316,-1212.548 			"/>
			<path fill="#FFC83A" stroke="#35303A" stroke-width="4" stroke-miterlimit="10" d="M731.017-1316.711
				c2.994,2.994,2.994,7.848,0,10.842l0,0c-2.994,2.994-7.848,2.994-10.842,0l-28.284-28.284c-2.994-2.994-2.994-7.848,0-10.842l0,0
				c2.994-2.994,7.848-2.994,10.842,0L731.017-1316.711z"/>
			<path fill="#E6DCDD" stroke="#35303A" stroke-width="4" stroke-miterlimit="10" d="M561.281-1183.736
				c0,10.125-8.208,18.333-18.333,18.333h-51.333c-10.125,0-18.333-8.208-18.333-18.333v-33h88V-1183.736z"/>
			<path fill="#E6DCDD" stroke="#35303A" stroke-width="4" stroke-miterlimit="10" d="M558.031-1161.403
				c0-2.485-1.766-4.5-3.944-4.5h-73.613c-2.178,0-3.944,2.015-3.944,4.5l0,0c0,2.485,1.766,4.5,3.944,4.5h73.613
				C556.266-1156.903,558.031-1158.917,558.031-1161.403L558.031-1161.403z"/>
			<path fill="#AAD8BF" stroke="#35303A" stroke-width="4" stroke-miterlimit="10" d="M513.37-1308.099
				c-3.804,2.524-8.914,1.517-11.413-2.25c-2.499-3.767-1.441-8.866,2.363-11.39s8.914-1.517,11.413,2.25
				C518.233-1315.723,517.174-1310.624,513.37-1308.099z"/>
			<path fill="#35303A" d="M492.559-1241.903c3.224,0,3.224-5,0-5C489.335-1246.903,489.335-1241.903,492.559-1241.903
				L492.559-1241.903z"/>
			<path fill="#35303A" d="M505.892-1267.903c3.224,0,3.224-5,0-5S502.668-1267.903,505.892-1267.903L505.892-1267.903z"/>
			<path fill="#35303A" d="M504.559-1249.903c3.224,0,3.224-5,0-5C501.335-1254.903,501.335-1249.903,504.559-1249.903
				L504.559-1249.903z"/>
			<path fill="#35303A" d="M521.226-1261.236c3.224,0,3.224-5,0-5S518.001-1261.236,521.226-1261.236L521.226-1261.236z"/>
			<path fill="#35303A" d="M520.559-1241.903c3.224,0,3.224-5,0-5C517.335-1246.903,517.335-1241.903,520.559-1241.903
				L520.559-1241.903z"/>
			<path fill="#35303A" d="M505.226-1226.569c3.224,0,3.224-5,0-5S502.001-1226.569,505.226-1226.569L505.226-1226.569z"/>
			<path fill="#35303A" d="M529.892-1223.903c3.224,0,3.224-5,0-5C526.668-1228.903,526.668-1223.903,529.892-1223.903
				L529.892-1223.903z"/>
			<path fill="#35303A" d="M539.892-1241.236c3.224,0,3.224-5,0-5C536.668-1246.236,536.668-1241.236,539.892-1241.236
				L539.892-1241.236z"/>
			<path fill="#35303A" d="M537.226-1258.569c3.224,0,3.224-5,0-5S534.001-1258.569,537.226-1258.569L537.226-1258.569z"/>
			<path fill="#35303A" d="M551.226-1283.236c3.224,0,3.224-5,0-5S548.001-1283.236,551.226-1283.236L551.226-1283.236z"/>
			<path fill="#35303A" d="M569.857-1292.33c3.224,0,3.224-5,0-5C566.632-1297.33,566.632-1292.33,569.857-1292.33L569.857-1292.33z
				"/>
			<path fill="#35303A" d="M551.226-1273.903c3.224,0,3.224-5,0-5S548.001-1273.903,551.226-1273.903L551.226-1273.903z"/>
			<path fill="#35303A" d="M481.226-1279.236c3.224,0,3.224-5,0-5S478.001-1279.236,481.226-1279.236L481.226-1279.236z"/>
			<path fill="#35303A" d="M484.559-1292.569c3.224,0,3.224-5,0-5C481.335-1297.569,481.335-1292.569,484.559-1292.569
				L484.559-1292.569z"/>
			<path fill="#35303A" d="M497.226-1295.903c3.224,0,3.224-5,0-5S494.001-1295.903,497.226-1295.903L497.226-1295.903z"/>
		</g>
		<g>
			<path fill="#FFC83A" stroke="#35303A" stroke-width="4" stroke-miterlimit="10" d="M366.376-1198.91
				c0,3.776-2.786,6.837-6.223,6.837h-90.887c-3.437,0-6.223-3.061-6.223-6.837v-135.241c0-3.776,2.786-6.837,6.223-6.837h90.887
				c3.437,0,6.223,3.061,6.223,6.837V-1198.91z"/>
			
				<path fill="#AAD8BF" stroke="#35303A" stroke-width="4" stroke-linecap="round" stroke-linejoin="round" stroke-miterlimit="10" d="
				M160.492-1058.034c0,5.494-4.454,9.947-9.947,9.947H11.947c-5.494,0-9.947-4.454-9.947-9.947v-155.177
				c0-5.494,4.454-9.947,9.947-9.947h138.598c5.494,0,9.947,4.453,9.947,9.947V-1058.034z"/>
			<polygon fill="#E6DCDD" stroke="#35303A" stroke-width="4" stroke-miterlimit="10" points="150.213,-1077.265 10.952,-1077.265 
				10.952,-1212.548 150.213,-1212.548 			"/>
			<path fill="none" stroke="#35303A" stroke-width="4" stroke-miterlimit="10" d="M33.367-1078.26c0,0,18.369-20.236,46.221-20.236
				s48.94,20.236,48.94,20.236"/>
			
				<path fill="#AAD8BF" stroke="#35303A" stroke-width="4" stroke-linecap="round" stroke-linejoin="round" stroke-miterlimit="10" d="
				M193.051-1354.474c0,8.1-6.566,14.667-14.667,14.667s-14.667-6.566-14.667-14.667s6.566-14.667,14.667-14.667
				S193.051-1362.574,193.051-1354.474z"/>
			<path fill="#FFC83A" stroke="#35303A" stroke-width="4" stroke-miterlimit="10" d="M47.915-1316.711
				c2.994,2.994,2.994,7.848,0,10.842l0,0c-2.994,2.994-7.848,2.994-10.842,0l-28.284-28.284c-2.994-2.994-2.994-7.848,0-10.842l0,0
				c2.994-2.994,7.848-2.994,10.842,0L47.915-1316.711z"/>
			
				<line fill="none" stroke="#35303A" stroke-width="4" stroke-linecap="round" stroke-linejoin="round" stroke-miterlimit="10" x1="40.95" y1="-1311.302" x2="47.137" y2="-1317.489"/>
			
				<path fill="#D5302F" stroke="#35303A" stroke-width="4" stroke-linecap="round" stroke-linejoin="round" stroke-miterlimit="10" d="
				M79.507-1201.606c20.744,0,43.793,13.819,43.793,44.835c0,31.016,0,54.048,0,54.048H39.666c0,0,0-35.008,0-54.048
				C39.666-1186.558,60.41-1201.606,79.507-1201.606z"/>
			<path fill="#FFC83A" stroke="#35303A" stroke-width="4" stroke-miterlimit="10" d="M108.991-1148.459
				c0,0-5.281-6.402-22.018-8.552c-15.817-2.032-26.184-14.451-26.184-14.451s-2.604,16.855-9.819,23.003c0,0-1,14.156,3.501,24.773
				c2.769,6.532,6.917,12.448,12.482,16.256v13.413c0,0,3.069,6.605,13.573,6.605c9.23,0,12.527-6.605,12.527-6.605v-12.797
				c5.559-3.72,9.975-9.855,12.595-16.872C110.65-1137.081,108.991-1148.459,108.991-1148.459z"/>
			<path fill="none" stroke="#35303A" stroke-width="2" stroke-linecap="round" stroke-linejoin="round" stroke-miterlimit="10" d="
				M81.201-1132.205c3.812,0,4.433-1.99,2.799-4.101c-1.118-1.444-2.963-2.842-2.963-4.716"/>
			<path fill="#35303A" d="M81.498-1121.835c2.566,0,4.619,0.837,5.303,0.837c0.684,0-2.224,2.303-5.303,2.303
				s-6.501-2.303-5.303-2.303S79.217-1121.835,81.498-1121.835z"/>
			<path fill="none" stroke="#35303A" stroke-width="3" stroke-linecap="round" stroke-linejoin="round" stroke-miterlimit="10" d="
				M62.087-1144.902c1.186-1.192,4.018-0.883,5.247,0.074"/>
			<path fill="none" stroke="#35303A" stroke-width="3" stroke-linecap="round" stroke-linejoin="round" stroke-miterlimit="10" d="
				M99.907-1144.509c-1.891-1.148-2.568-1.148-4.601-0.319"/>
			
				<path fill="#D5302F" stroke="#35303A" stroke-width="4" stroke-linecap="round" stroke-linejoin="round" stroke-miterlimit="10" d="
				M302.625-1121.667c-2.506,2.506-6.569,2.506-9.074,0c-2.506-2.506-2.506-6.569,0-9.074c2.506-2.506,6.569-2.506,9.074,0
				C305.131-1128.236,305.131-1124.173,302.625-1121.667z"/>
			
				<line fill="none" stroke="#35303A" stroke-width="8" stroke-linecap="round" stroke-linejoin="round" stroke-miterlimit="10" x1="345.154" y1="-1187.817" x2="345.154" y2="-1344.996"/>
			<polygon fill="#E6DCDD" stroke="#35303A" stroke-width="4" stroke-miterlimit="10" points="319.28,-1273.908 256.429,-1278.238 
				260.896,-1343.084 323.747,-1338.754 			"/>
			<path fill="none" stroke="#35303A" stroke-width="4" stroke-linecap="round" stroke-linejoin="round" stroke-miterlimit="10" d="
				M290.296-1314.731c0-5.417,0-11.695,0-14.412c0-3.931,6.66-4.367,6.66-0.436c0,6.987,0,17.687,0,17.687
				c0,3.618-2.933,6.551-6.551,6.551l0,0c-3.618,0-6.551-2.933-6.551-6.551v-27.514c0-3.618,2.933-6.551,6.551-6.551
				c3.712,0,6.769,3.1,6.769,5.241"/>
		</g>
	</g>
</pattern>
<rect fill="url(#New_Pattern)" width="1400" height="980"/>
<g>
</g>
<g>
</g>
<g>
</g>
<g>
</g>
<g>
</g>
<g>
</g>
</svg>
